<mxfile host="app.diagrams.net" modified="2022-10-27T08:25:29.426Z" agent="5.0 (X11)" etag="LginNNlrm7UsgR2qaNU_" version="20.5.1" type="github">
  <diagram id="rhGnawXu-sOyFCt1OZwF" name="Page-1">
    <mxGraphModel dx="778" dy="726" grid="1" gridSize="10" guides="1" tooltips="1" connect="1" arrows="1" fold="1" page="1" pageScale="1" pageWidth="850" pageHeight="1100" background="#F4F1DE" math="0" shadow="0">
      <root>
        <mxCell id="0" />
        <mxCell id="1" parent="0" />
        <mxCell id="IDs0Z8VZgHh4Mf1sCj_e-1" value="" style="rounded=1;whiteSpace=wrap;html=1;fillColor=#F2CC8F;strokeColor=#E07A5F;arcSize=50;fontColor=#393C56;direction=south;" parent="1" vertex="1">
          <mxGeometry x="60" y="1030" width="110" height="30" as="geometry" />
        </mxCell>
        <mxCell id="IDs0Z8VZgHh4Mf1sCj_e-2" value="" style="rounded=1;whiteSpace=wrap;html=1;fillColor=#d0cee2;strokeColor=#56517e;arcSize=50;" parent="1" vertex="1">
          <mxGeometry x="110" y="90" width="99" height="30" as="geometry" />
        </mxCell>
        <mxCell id="IDs0Z8VZgHh4Mf1sCj_e-5" value="Data Page" style="swimlane;fillColor=#e1d5e7;strokeColor=#9673a6;startSize=30;" parent="1" vertex="1">
          <mxGeometry x="105" y="240" width="120" height="190" as="geometry" />
        </mxCell>
        <mxCell id="IDs0Z8VZgHh4Mf1sCj_e-6" value="" style="html=1;whiteSpace=wrap;shape=isoCube2;backgroundOutline=1;isoAngle=15;fillColor=#dae8fc;strokeColor=#6c8ebf;" parent="IDs0Z8VZgHh4Mf1sCj_e-5" vertex="1">
          <mxGeometry x="15" y="60" width="90" height="100" as="geometry" />
        </mxCell>
        <mxCell id="IDs0Z8VZgHh4Mf1sCj_e-28" value="&lt;blockquote&gt;Main Page&lt;/blockquote&gt;" style="text;resizable=0;autosize=1;align=center;verticalAlign=middle;points=[];fillColor=none;strokeColor=none;rounded=0;fontSize=14;fontColor=#393C56;labelBackgroundColor=none;labelBorderColor=none;html=1;fontFamily=Courier New;rotation=0;" parent="1" vertex="1">
          <mxGeometry x="69.5" y="75" width="180" height="60" as="geometry" />
        </mxCell>
        <mxCell id="IDs0Z8VZgHh4Mf1sCj_e-30" value="Vertical Tree Layout" style="swimlane;startSize=20;horizontal=1;childLayout=treeLayout;horizontalTree=0;resizable=0;containerType=tree;fontSize=14;fillColor=#d0cee2;strokeColor=#56517e;" parent="1" vertex="1">
          <mxGeometry x="512.5" y="100" width="280" height="190" as="geometry" />
        </mxCell>
        <mxCell id="IDs0Z8VZgHh4Mf1sCj_e-31" value="Main Information $Pager" style="whiteSpace=wrap;html=1;fontSize=14;fillColor=#bac8d3;strokeColor=#23445d;" parent="IDs0Z8VZgHh4Mf1sCj_e-30" vertex="1">
          <mxGeometry x="57.5" y="40" width="165" height="40" as="geometry" />
        </mxCell>
        <mxCell id="IDs0Z8VZgHh4Mf1sCj_e-32" value="$Pager 1" style="whiteSpace=wrap;html=1;fontSize=14;fillColor=#d0cee2;strokeColor=#56517e;" parent="IDs0Z8VZgHh4Mf1sCj_e-30" vertex="1">
          <mxGeometry x="20" y="130" width="100" height="40" as="geometry" />
        </mxCell>
        <mxCell id="IDs0Z8VZgHh4Mf1sCj_e-33" value="" style="edgeStyle=elbowEdgeStyle;elbow=vertical;html=1;rounded=0;fontSize=14;labelBackgroundColor=#F4F1DE;strokeColor=#10739e;fontColor=#393C56;fillColor=#b1ddf0;" parent="IDs0Z8VZgHh4Mf1sCj_e-30" source="IDs0Z8VZgHh4Mf1sCj_e-31" target="IDs0Z8VZgHh4Mf1sCj_e-32" edge="1">
          <mxGeometry relative="1" as="geometry" />
        </mxCell>
        <mxCell id="IDs0Z8VZgHh4Mf1sCj_e-34" value="$Pager 2" style="whiteSpace=wrap;html=1;fontSize=14;fillColor=#d0cee2;strokeColor=#56517e;" parent="IDs0Z8VZgHh4Mf1sCj_e-30" vertex="1">
          <mxGeometry x="160" y="130" width="100" height="40" as="geometry" />
        </mxCell>
        <mxCell id="IDs0Z8VZgHh4Mf1sCj_e-35" value="" style="edgeStyle=elbowEdgeStyle;elbow=vertical;html=1;rounded=0;fontSize=14;labelBackgroundColor=#F4F1DE;strokeColor=#56517e;fontColor=#393C56;fillColor=#d0cee2;" parent="IDs0Z8VZgHh4Mf1sCj_e-30" source="IDs0Z8VZgHh4Mf1sCj_e-31" target="IDs0Z8VZgHh4Mf1sCj_e-34" edge="1">
          <mxGeometry relative="1" as="geometry" />
        </mxCell>
        <mxCell id="IDs0Z8VZgHh4Mf1sCj_e-46" value="" style="ellipse;whiteSpace=wrap;html=1;aspect=fixed;strokeColor=#d6b656;fontFamily=Courier New;fillColor=#fff2cc;" parent="1" vertex="1">
          <mxGeometry x="70" y="1035" width="20" height="20" as="geometry" />
        </mxCell>
        <mxCell id="IDs0Z8VZgHh4Mf1sCj_e-47" value="" style="ellipse;whiteSpace=wrap;html=1;aspect=fixed;strokeColor=#82b366;fontFamily=Courier New;fillColor=#d5e8d4;" parent="1" vertex="1">
          <mxGeometry x="105" y="1035" width="20" height="20" as="geometry" />
        </mxCell>
        <mxCell id="IDs0Z8VZgHh4Mf1sCj_e-48" value="" style="ellipse;whiteSpace=wrap;html=1;aspect=fixed;strokeColor=#b85450;fontFamily=Courier New;fillColor=#f8cecc;" parent="1" vertex="1">
          <mxGeometry x="140" y="1035" width="20" height="20" as="geometry" />
        </mxCell>
        <mxCell id="IDs0Z8VZgHh4Mf1sCj_e-49" value="" style="rounded=1;whiteSpace=wrap;html=1;fillColor=#d0cee2;arcSize=50;direction=south;strokeColor=#56517e;" parent="1" vertex="1">
          <mxGeometry x="730" y="10" width="110" height="30" as="geometry" />
        </mxCell>
        <mxCell id="IDs0Z8VZgHh4Mf1sCj_e-50" value="" style="ellipse;whiteSpace=wrap;html=1;aspect=fixed;strokeColor=#d6b656;fontFamily=Courier New;fillColor=#fff2cc;" parent="1" vertex="1">
          <mxGeometry x="749" y="17.5" width="15" height="15" as="geometry" />
        </mxCell>
        <mxCell id="IDs0Z8VZgHh4Mf1sCj_e-51" value="" style="ellipse;whiteSpace=wrap;html=1;aspect=fixed;strokeColor=#82b366;fontFamily=Courier New;fillColor=#d5e8d4;" parent="1" vertex="1">
          <mxGeometry x="777.5" y="17.5" width="15" height="15" as="geometry" />
        </mxCell>
        <mxCell id="IDs0Z8VZgHh4Mf1sCj_e-52" value="" style="ellipse;whiteSpace=wrap;html=1;aspect=fixed;strokeColor=#b85450;fontFamily=Courier New;fillColor=#f8cecc;" parent="1" vertex="1">
          <mxGeometry x="807" y="17.5" width="15" height="15" as="geometry" />
        </mxCell>
        <mxCell id="IDs0Z8VZgHh4Mf1sCj_e-53" value="&lt;div align=&quot;left&quot;&gt;&amp;nbsp; &amp;nbsp;&amp;nbsp; &amp;nbsp; https://www.&lt;/div&gt;" style="rounded=1;whiteSpace=wrap;html=1;fontFamily=Courier New;fillColor=#d0cee2;arcSize=50;strokeColor=#56517e;align=left;" parent="1" vertex="1">
          <mxGeometry x="110" y="10" width="590" height="30" as="geometry" />
        </mxCell>
        <mxCell id="IDs0Z8VZgHh4Mf1sCj_e-57" value="" style="rounded=0;orthogonalLoop=1;jettySize=auto;html=1;endArrow=none;endFill=0;sketch=0;sourcePerimeterSpacing=0;targetPerimeterSpacing=0;strokeColor=#23445d;fontFamily=Courier New;fontColor=#393C56;fillColor=#bac8d3;" parent="1" target="IDs0Z8VZgHh4Mf1sCj_e-59" edge="1">
          <mxGeometry relative="1" as="geometry">
            <mxPoint x="116" y="25" as="sourcePoint" />
          </mxGeometry>
        </mxCell>
        <mxCell id="IDs0Z8VZgHh4Mf1sCj_e-58" value="" style="rounded=0;orthogonalLoop=1;jettySize=auto;html=1;endArrow=halfCircle;endFill=0;entryX=0.5;entryY=0.5;endSize=6;strokeWidth=1;sketch=0;strokeColor=#23445d;fontFamily=Courier New;fontColor=#393C56;fillColor=#bac8d3;" parent="1" target="IDs0Z8VZgHh4Mf1sCj_e-59" edge="1">
          <mxGeometry relative="1" as="geometry">
            <mxPoint x="156" y="25" as="sourcePoint" />
            <Array as="points">
              <mxPoint x="156" y="25" />
            </Array>
          </mxGeometry>
        </mxCell>
        <mxCell id="IDs0Z8VZgHh4Mf1sCj_e-59" value="" style="ellipse;whiteSpace=wrap;html=1;align=center;aspect=fixed;resizable=0;points=[];outlineConnect=0;sketch=0;strokeColor=#23445d;fontFamily=Courier New;fillColor=#bac8d3;" parent="1" vertex="1">
          <mxGeometry x="131" y="20" width="10" height="10" as="geometry" />
        </mxCell>
        <mxCell id="IDs0Z8VZgHh4Mf1sCj_e-66" value="" style="rounded=1;whiteSpace=wrap;html=1;fillColor=#d0cee2;strokeColor=#56517e;arcSize=50;" parent="1" vertex="1">
          <mxGeometry x="110" y="165" width="99" height="30" as="geometry" />
        </mxCell>
        <mxCell id="IDs0Z8VZgHh4Mf1sCj_e-67" value="&lt;blockquote&gt;Page 1&lt;br&gt;&lt;/blockquote&gt;" style="text;resizable=0;autosize=1;align=center;verticalAlign=middle;points=[];fillColor=none;strokeColor=none;rounded=0;fontSize=14;fontColor=#393C56;labelBackgroundColor=none;labelBorderColor=none;html=1;fontFamily=Courier New;rotation=0;" parent="1" vertex="1">
          <mxGeometry x="84.5" y="150" width="150" height="60" as="geometry" />
        </mxCell>
        <mxCell id="IDs0Z8VZgHh4Mf1sCj_e-68" value="textures" style="text;html=1;align=center;verticalAlign=middle;resizable=0;points=[];autosize=1;strokeColor=none;fillColor=none;fontFamily=Courier New;fontColor=#393C56;" parent="1" vertex="1">
          <mxGeometry x="61" y="980" width="80" height="30" as="geometry" />
        </mxCell>
        <mxCell id="IDs0Z8VZgHh4Mf1sCj_e-70" value="" style="shape=waypoint;sketch=0;fillStyle=solid;size=6;pointerEvents=1;points=[];fillColor=#bac8d3;resizable=0;rotatable=0;perimeter=centerPerimeter;snapToPoint=1;strokeColor=#23445d;fontFamily=Courier New;" parent="1" vertex="1">
          <mxGeometry x="116" y="5" width="40" height="40" as="geometry" />
        </mxCell>
        <mxCell id="IDs0Z8VZgHh4Mf1sCj_e-73" value="" style="endArrow=none;dashed=1;html=1;dashPattern=1 3;strokeWidth=2;rounded=0;strokeColor=#56517e;fontFamily=Courier New;fontColor=#393C56;fillColor=#d0cee2;" parent="1" edge="1">
          <mxGeometry width="50" height="50" relative="1" as="geometry">
            <mxPoint x="159" y="160" as="sourcePoint" />
            <mxPoint x="159.17000000000002" y="120" as="targetPoint" />
          </mxGeometry>
        </mxCell>
        <mxCell id="IDs0Z8VZgHh4Mf1sCj_e-74" value="" style="endArrow=none;dashed=1;html=1;dashPattern=1 3;strokeWidth=2;rounded=0;strokeColor=#56517e;fontFamily=Courier New;fontColor=#393C56;fillColor=#d0cee2;" parent="1" edge="1">
          <mxGeometry width="50" height="50" relative="1" as="geometry">
            <mxPoint x="159.38" y="235" as="sourcePoint" />
            <mxPoint x="159.55" y="195" as="targetPoint" />
          </mxGeometry>
        </mxCell>
        <mxCell id="IDs0Z8VZgHh4Mf1sCj_e-75" value="" style="endArrow=none;dashed=1;html=1;dashPattern=1 3;strokeWidth=2;rounded=0;strokeColor=#56517e;fontFamily=Courier New;fontColor=#393C56;fillColor=#d0cee2;" parent="1" edge="1">
          <mxGeometry width="50" height="50" relative="1" as="geometry">
            <mxPoint x="234.5" y="350" as="sourcePoint" />
            <mxPoint x="280" y="350" as="targetPoint" />
          </mxGeometry>
        </mxCell>
        <mxCell id="IDs0Z8VZgHh4Mf1sCj_e-76" value="" style="endArrow=none;dashed=1;html=1;dashPattern=1 3;strokeWidth=2;rounded=0;strokeColor=#56517e;fontFamily=Courier New;fontColor=#393C56;fillColor=#d0cee2;" parent="1" edge="1">
          <mxGeometry width="50" height="50" relative="1" as="geometry">
            <mxPoint x="280" y="1060" as="sourcePoint" />
            <mxPoint x="280.17" y="1020" as="targetPoint" />
          </mxGeometry>
        </mxCell>
        <mxCell id="IDs0Z8VZgHh4Mf1sCj_e-77" value="" style="html=1;whiteSpace=wrap;shape=isoCube2;backgroundOutline=1;isoAngle=15;fillColor=none;" parent="1" vertex="1">
          <mxGeometry x="290" y="300" width="90" height="100" as="geometry" />
        </mxCell>
        <mxCell id="IDs0Z8VZgHh4Mf1sCj_e-78" value="" style="endArrow=none;dashed=1;html=1;dashPattern=1 3;strokeWidth=2;rounded=0;strokeColor=#56517e;fontFamily=Courier New;fontColor=#393C56;fillColor=#d0cee2;" parent="1" edge="1">
          <mxGeometry width="50" height="50" relative="1" as="geometry">
            <mxPoint x="220" y="179.71" as="sourcePoint" />
            <mxPoint x="310" y="180" as="targetPoint" />
          </mxGeometry>
        </mxCell>
        <mxCell id="IDs0Z8VZgHh4Mf1sCj_e-80" value="" style="rounded=1;whiteSpace=wrap;html=1;fillColor=#d0cee2;strokeColor=#56517e;arcSize=50;" parent="1" vertex="1">
          <mxGeometry x="326" y="165" width="99" height="30" as="geometry" />
        </mxCell>
        <mxCell id="IDs0Z8VZgHh4Mf1sCj_e-81" value="&lt;blockquote&gt;Page 2&lt;br&gt;&lt;/blockquote&gt;" style="text;resizable=0;autosize=1;align=center;verticalAlign=middle;points=[];fillColor=none;strokeColor=none;rounded=0;fontSize=14;fontColor=#393C56;labelBackgroundColor=none;labelBorderColor=none;html=1;fontFamily=Courier New;rotation=0;" parent="1" vertex="1">
          <mxGeometry x="300.5" y="150" width="150" height="60" as="geometry" />
        </mxCell>
        <mxCell id="D_7_FlHEk1rg1oLGK2tV-1" value="" style="rounded=1;whiteSpace=wrap;html=1;fillColor=#d0cee2;strokeColor=#56517e;arcSize=50;" vertex="1" parent="1">
          <mxGeometry x="340" y="1030" width="99" height="30" as="geometry" />
        </mxCell>
        <mxCell id="D_7_FlHEk1rg1oLGK2tV-2" value="&lt;blockquote&gt;Page 2&lt;br&gt;&lt;/blockquote&gt;" style="text;resizable=0;autosize=1;align=center;verticalAlign=middle;points=[];fillColor=none;strokeColor=none;rounded=0;fontSize=14;fontColor=#393C56;labelBackgroundColor=none;labelBorderColor=none;html=1;fontFamily=Courier New;rotation=0;" vertex="1" parent="1">
          <mxGeometry x="470" y="1015" width="150" height="60" as="geometry" />
        </mxCell>
        <mxCell id="D_7_FlHEk1rg1oLGK2tV-9" value="" style="endArrow=none;dashed=1;html=1;dashPattern=1 3;strokeWidth=2;rounded=0;strokeColor=#56517e;fontFamily=Courier New;fontColor=#393C56;fillColor=#d0cee2;" edge="1" parent="1">
          <mxGeometry width="50" height="50" relative="1" as="geometry">
            <mxPoint x="501" y="180.24" as="sourcePoint" />
            <mxPoint x="430.00000000000006" y="179.76" as="targetPoint" />
          </mxGeometry>
        </mxCell>
      </root>
    </mxGraphModel>
  </diagram>
</mxfile>
